<?xml version="1.0" encoding="UTF-8"?>
<svg version="1.1" xmlns="http://www.w3.org/2000/svg" width="50" height="50">
<path d="M0 0 C1.67542976 0.28604898 3.34385343 0.61781233 5 1 C5.03738281 1.79664063 5.07476562 2.59328125 5.11328125 3.4140625 C5.46721674 11.69997882 5.46721674 11.69997882 9 19 C14.85418388 23.60861284 20.71263204 23.76067757 28 24 C28.63671875 26.3359375 28.63671875 26.3359375 29 29 C24.99425366 33.80689561 20.7300286 37.61318222 14.36328125 38.2734375 C7.17024393 38.51289841 2.47221755 37.83775754 -3 33 C-8.43296808 27.13811339 -9.40290034 22.77496726 -9.25 14.91015625 C-8.70484888 8.56425649 -5.5400212 5.18159848 -1 1 C-0.67 0.67 -0.34 0.34 0 0 Z M-2 10 C-4.49186552 13.73779829 -4.63964661 17.66821603 -4 22 C-2.34303843 26.91135315 0.44650042 30.03273569 5.06640625 32.34765625 C9.28691857 33.77154627 13.33612204 33.66555118 17.5 32 C17.995 31.67 18.49 31.34 19 31 C19 30.34 19 29.68 19 29 C18.26394531 28.78085937 17.52789062 28.56171875 16.76953125 28.3359375 C10.37589269 26.25821612 6.51740042 24.82569444 3 19 C1.81436954 16.04318281 0.83969028 13.07203761 0 10 C-0.66 10 -1.32 10 -2 10 Z " fill="#000000" transform="translate(15,6)"/>
<path d="M0 0 C0.33 0.99 0.66 1.98 1 3 C3.00016466 4.20882096 3.00016466 4.20882096 5 5 C5 5.99 5 6.98 5 8 C4.38125 8.268125 3.7625 8.53625 3.125 8.8125 C0.7004767 9.95556848 0.7004767 9.95556848 -1 13 C-1.66 13 -2.32 13 -3 13 C-3.33 11.68 -3.66 10.36 -4 9 C-5.32 8.67 -6.64 8.34 -8 8 C-8 5 -8 5 -5.6875 2.3125 C-3 0 -3 0 0 0 Z " fill="#000000" transform="translate(33,4)"/>
<path d="M0 0 C0.103125 0.639375 0.20625 1.27875 0.3125 1.9375 C0.539375 2.618125 0.76625 3.29875 1 4 C1.99 4.33 2.98 4.66 4 5 C4 7 4 7 2.1875 9.125 C0 11 0 11 -3 11 C-5.1875 9 -5.1875 9 -7 7 C-5.84933177 3.5479953 -4.01648928 0 0 0 Z " fill="#000000" transform="translate(42,14)"/>
</svg>
