<?xml version="1.0" encoding="UTF-8"?>
<svg version="1.1" xmlns="http://www.w3.org/2000/svg" width="50" height="50">
<path d="M0 0 C2.4375 1.0625 2.4375 1.0625 4.8125 3.125 C8.18693444 5.61565399 10.34029106 5.29887744 14.4375 5.0625 C14.9325 5.5575 14.9325 5.5575 15.4375 6.0625 C15.355 7.114375 15.2725 8.16625 15.1875 9.25 C15.44576947 13.18860942 15.51716922 13.55419463 18 16.1875 C20.4375 19.0625 20.4375 19.0625 20.5 21.625 C19.4375 24.0625 19.4375 24.0625 17.375 26.4375 C14.88434601 29.81193444 15.20112256 31.96529106 15.4375 36.0625 C15.1075 36.3925 14.7775 36.7225 14.4375 37.0625 C13.385625 36.98 12.33375 36.8975 11.25 36.8125 C7.31139058 37.07076947 6.94580537 37.14216922 4.3125 39.625 C1.4375 42.0625 1.4375 42.0625 -1.125 42.125 C-3.5625 41.0625 -3.5625 41.0625 -5.9375 39 C-9.31193444 36.50934601 -11.46529106 36.82612256 -15.5625 37.0625 C-15.8925 36.7325 -16.2225 36.4025 -16.5625 36.0625 C-16.48 35.010625 -16.3975 33.95875 -16.3125 32.875 C-16.57076947 28.93639058 -16.64216922 28.57080537 -19.125 25.9375 C-21.5625 23.0625 -21.5625 23.0625 -21.625 20.5 C-20.5625 18.0625 -20.5625 18.0625 -18.5 15.6875 C-16.00934601 12.31306556 -16.32612256 10.15970894 -16.5625 6.0625 C-16.2325 5.7325 -15.9025 5.4025 -15.5625 5.0625 C-14.510625 5.145 -13.45875 5.2275 -12.375 5.3125 C-8.43639058 5.05423053 -8.07080537 4.98283078 -5.4375 2.5 C-2.5625 0.0625 -2.5625 0.0625 0 0 Z M-1.5625 7.0625 C-2.119375 7.536875 -2.67625 8.01125 -3.25 8.5 C-5.74596074 10.18645996 -7.6071237 10.65203107 -10.5625 11.0625 C-10.85125 12.135 -11.14 13.2075 -11.4375 14.3125 C-12.29070109 17.15650364 -13.1261503 19.49758983 -14.5625 22.0625 C-14.088125 22.619375 -13.61375 23.17625 -13.125 23.75 C-11.43854004 26.24596074 -10.97296893 28.1071237 -10.5625 31.0625 C-8.95375 31.495625 -8.95375 31.495625 -7.3125 31.9375 C-4.46849636 32.79070109 -2.12741017 33.6261503 0.4375 35.0625 C0.994375 34.588125 1.55125 34.11375 2.125 33.625 C4.62096074 31.93854004 6.4821237 31.47296893 9.4375 31.0625 C9.72625 29.99 10.015 28.9175 10.3125 27.8125 C11.16570109 24.96849636 12.0011503 22.62741017 13.4375 20.0625 C12.963125 19.505625 12.48875 18.94875 12 18.375 C10.31354004 15.87903926 9.84796893 14.0178763 9.4375 11.0625 C8.365 10.77375 7.2925 10.485 6.1875 10.1875 C3.34349636 9.33429891 1.00241017 8.4988497 -1.5625 7.0625 Z " fill="#000000" transform="translate(25.5625,3.9375)"/>
<path d="M0 0 C2.69990662 1.79993774 4.5418865 3.083773 6 6 C6.43023798 9.87214182 6.31669086 11.52496371 4.125 14.8125 C1.61855093 17.39266816 0.74538327 17.91717964 -2.8125 18.3125 C-6.7307645 17.92835642 -8.21293267 16.70743683 -11 14 C-12.42662219 11.14675563 -12.31033868 9.16545451 -12 6 C-8.54235344 0.81353016 -6.24330406 -0.61208863 0 0 Z M-5.625 6.5 C-6.07875 6.995 -6.5325 7.49 -7 8 C-6.34 9.32 -5.68 10.64 -5 12 C-3.68 12 -2.36 12 -1 12 C-0.34 10.68 0.32 9.36 1 8 C-0.37485532 6.45833358 -0.37485532 6.45833358 -2 5 C-4.12364481 4.77390663 -4.12364481 4.77390663 -5.625 6.5 Z " fill="#000000" transform="translate(28,16)"/>
</svg>
